{"accessors":[{"bufferView":0,"byteOffset":0,"componentType":5126,"count":459,"max":[2.3708298206329346,2.3708298206329346,2.823808193206787],"min":[-2.3708298206329346,-2.3708298206329346,-2.823808193206787],"type":"VEC3"},{"bufferView":0,"byteOffset":5508,"componentType":5126,"count":459,"max":[1.0,1.0,1.0],"min":[-1.0,-1.0,-1.0],"type":"VEC3"},{"bufferView":0,"byteOffset":11016,"componentType":5126,"count":459,"max":[0.9884690642356873,0.9814556650817394],"min":[0.01730276830494404,0.02298736572265625],"type":"VEC2"},{"bufferView":1,"byteOffset":0,"componentType":5123,"count":708,"max":[458],"min":[0],"type":"SCALAR"}],"asset":{"generator":"ClayGL - fbx2gltf","version":"2.0"},"bufferViews":[{"buffer":0,"byteLength":14688,"byteOffset":0,"target":34962},{"buffer":0,"byteLength":1416,"byteOffset":14688,"target":34963}],"buffers":[{"byteLength":16104,"uri":"Cube_01.bin"}],"materials":[{"emissiveFactor":[0.0,0.0,0.0],"name":"lambert1","pbrMetallicRoughness":{"baseColorFactor":[0.5,0.5,0.5,1],"metallicFactor":0,"roughnessFactor":1}}],"meshes":[{"name":"pCube1","primitives":[{"attributes":{"NORMAL":1,"POSITION":0,"TEXCOORD_0":2},"indices":3,"material":0}]}],"nodes":[{"matrix":[1.0,0.0,0.0,0.0,0.0,1.0,0.0,0.0,0.0,0.0,1.0,0.0,0.0,0.0,0.0,1.0],"mesh":0,"name":"pCube1"}],"scene":0,"scenes":[{"nodes":[0]}]}