{"accessors":[{"bufferView":0,"byteOffset":0,"componentType":5126,"count":9471,"max":[0.20521530508995056,1.6504162549972534,0.1602010726928711],"min":[-0.205614373087883,1.2897961139678955,-0.08311785757541656],"type":"VEC3"},{"bufferView":0,"byteOffset":113652,"componentType":5126,"count":9471,"max":[0.9999975562095642,0.9998704195022583,0.9999799728393555],"min":[-0.9998722672462463,-0.9981131553649902,-0.9998561143875122],"type":"VEC3"},{"bufferView":0,"byteOffset":227304,"componentType":5126,"count":9471,"max":[1.0,0.9476700015366077],"min":[0.0,0.01780998706817627],"type":"VEC2"},{"bufferView":0,"byteOffset":303072,"componentType":5123,"count":9471,"max":[40,40,0,0],"min":[0,0,0,0],"type":"VEC4"},{"bufferView":0,"byteOffset":378840,"componentType":5126,"count":9471,"max":[1.0,0.9989821026184728,0,0],"min":[0.001017897381527234,0,0,0],"type":"VEC4"},{"bufferView":3,"byteOffset":0,"componentType":5123,"count":55437,"max":[9470],"min":[0],"type":"SCALAR"},{"bufferView":1,"byteOffset":0,"componentType":5126,"count":41,"max":[1.0000000000000002,4.54514438761613e-16,2.7744868157139736e-16,0.0,0.999914118790989,1.0,3.5805472489734475e-16,0.0,0.9992218234090171,0.55814550287907,1.0,0.0,0.7926490376947183,-0.013183803975533053,-3.2210673020598536e-17,1.0],"min":[3.4176555177967204e-17,-2.795644490227142e-16,-1.0,0.0,-0.5581455028790699,0.013105534801732767,-1.6653345369377346e-16,0.0,-2.774486815713974e-16,-0.9999141187909893,1.890883092866567e-16,0.0,-1.494873100672868,-1.6518391617157222,-0.16007055917304475,1.0],"type":"MAT4"},{"bufferView":0,"byteOffset":530376,"componentType":5126,"count":159,"max":[0.014833359979093075,1.516532063484192,0.13602660596370697],"min":[-0.018691610544919968,1.4908373355865479,0.08463960140943527],"type":"VEC3"},{"bufferView":0,"byteOffset":532284,"componentType":5126,"count":159,"max":[0.9622560739517212,0.9980217218399048,0.996347963809967],"min":[-0.962257444858551,-0.9985337257385254,-0.9275691509246826],"type":"VEC3"},{"bufferView":0,"byteOffset":534192,"componentType":5126,"count":159,"max":[0.9982900023460388,0.9980500000528991],"min":[0.0019499999471008778,0.00195997953414917],"type":"VEC2"},{"bufferView":0,"byteOffset":535464,"componentType":5123,"count":159,"max":[4,6,0,0],"min":[0,1,0,0],"type":"VEC4"},{"bufferView":0,"byteOffset":536736,"componentType":5126,"count":159,"max":[0.9882760087772686,0.9912510701722409,0,0],"min":[0.008748929827759086,0.011723991222731454,0,0],"type":"VEC4"},{"bufferView":3,"byteOffset":110874,"componentType":5123,"count":834,"max":[158],"min":[0],"type":"SCALAR"},{"bufferView":1,"byteOffset":2624,"componentType":5126,"count":7,"max":[1.0,4.54514438761613e-16,2.7744868157139736e-16,0.0,0.9980711157575216,0.9999999999999998,3.5805472489734475e-16,0.0,0.9992218234090171,0.55814550287907,0.9999999999999998,0.0,0.7926490376947183,-0.050242221530518896,-3.2210673020598536e-17,1.0],"min":[3.4176555177967204e-17,-2.6569083495984854e-16,-1.0,0.0,-0.5581455028790699,0.06208097849209423,-8.32667268468868e-17,0.0,-2.774486815713974e-16,-0.9980711157575216,1.890883092866567e-16,0.0,-1.494873100672868,-1.512534339817618,-0.08806304763827129,1.0],"type":"MAT4"},{"bufferView":0,"byteOffset":539280,"componentType":5126,"count":114,"max":[0.04215792194008827,1.5679936408996582,0.12574099004268646],"min":[0.01931777410209179,1.5451539754867554,0.10290007293224335],"type":"VEC3"},{"bufferView":0,"byteOffset":540648,"componentType":5126,"count":114,"max":[1.0,0.9999999403953552,0.9999999403953552],"min":[-0.9999999403953552,-1.0,-1.0],"type":"VEC3"},{"bufferView":0,"byteOffset":542016,"componentType":5126,"count":114,"max":[0.9969900250434875,0.996999999973923],"min":[0.0008900000248104334,0.003009974956512451],"type":"VEC2"},{"bufferView":3,"byteOffset":112542,"componentType":5123,"count":576,"max":[113],"min":[0],"type":"SCALAR"},{"bufferView":0,"byteOffset":542928,"componentType":5126,"count":114,"max":[-0.021235236898064613,1.5679936408996582,0.12574099004268646],"min":[-0.044075388461351395,1.5451539754867554,0.10290007293224335],"type":"VEC3"},{"bufferView":0,"byteOffset":544296,"componentType":5126,"count":114,"max":[1.0,1.0,0.9999999403953552],"min":[-1.0,-1.0,-1.0],"type":"VEC3"},{"bufferView":0,"byteOffset":545664,"componentType":5126,"count":114,"max":[0.9969900250434875,0.996999999973923],"min":[0.0008900000248104334,0.003009974956512451],"type":"VEC2"},{"bufferView":3,"byteOffset":113694,"componentType":5123,"count":576,"max":[113],"min":[0],"type":"SCALAR"},{"bufferView":0,"byteOffset":546576,"componentType":5126,"count":768,"max":[0.02615926042199135,1.5109732151031494,0.14151515066623688],"min":[-0.02915716916322708,1.5016206502914429,0.09869527071714401],"type":"VEC3"},{"bufferView":0,"byteOffset":555792,"componentType":5126,"count":768,"max":[0.9997611045837402,0.10501562803983688,0.999172031879425],"min":[-0.9997611045837402,-0.9903281927108765,-0.9947721362113953],"type":"VEC3"},{"bufferView":0,"byteOffset":565008,"componentType":5126,"count":768,"max":[0.8616999983787537,0.9980500000528991],"min":[0.0019499999471008778,0.10321998596191406],"type":"VEC2"},{"bufferView":3,"byteOffset":114846,"componentType":5123,"count":3936,"max":[767],"min":[0],"type":"SCALAR"},{"bufferView":0,"byteOffset":571152,"componentType":5126,"count":768,"max":[0.02559307962656021,1.505064845085144,0.13965730369091034],"min":[-0.02859099954366684,1.4947972297668457,0.10026683658361435],"type":"VEC3"},{"bufferView":0,"byteOffset":580368,"componentType":5126,"count":768,"max":[0.9995447397232056,0.9970170855522156,0.9993028044700623],"min":[-0.9995447993278503,-0.2874358892440796,-0.9924046993255615],"type":"VEC3"},{"bufferView":0,"byteOffset":589584,"componentType":5126,"count":768,"max":[0.9937400221824646,0.9980500000528991],"min":[0.0019499999471008778,0.0019299983978271484],"type":"VEC2"},{"bufferView":3,"byteOffset":122718,"componentType":5123,"count":3936,"max":[767],"min":[0],"type":"SCALAR"},{"bufferView":2,"byteOffset":0,"componentType":5126,"count":11,"max":[0.5833333333333334],"min":[0.03333333333333333],"type":"SCALAR"},{"bufferView":2,"byteOffset":44,"componentType":5126,"count":11,"max":[1.466473008507447e-33,1.3369665634141558e-32,0.9461577886513306,-0.3237057907644286],"min":[-2.9216888699409794e-32,-1.135812424670669e-32,0.8676282770093856,-0.49721340783784673],"type":"VEC4"}],"animations":[{"channels":[{"sampler":0,"target":{"node":12,"path":"rotation"}}],"name":"Take 001","samplers":[{"input":30,"interpolation":"LINEAR","output":31}]}],"asset":{"generator":"ClayGL - fbx2gltf","version":"2.0"},"bufferViews":[{"buffer":0,"byteLength":595728,"byteOffset":0,"target":34962},{"buffer":0,"byteLength":3072,"byteOffset":595728,"target":34962},{"buffer":0,"byteLength":220,"byteOffset":598800,"target":34962},{"buffer":0,"byteLength":130590,"byteOffset":599020,"target":34963}],"buffers":[{"byteLength":729610,"uri":"nikita.bin"}],"images":[{"uri":"C:/Users/nodev/Desktop/Andrey/T_Face_Nikita/T_Face_Nikita_Color.png"},{"uri":"C:/Users/nodev/Desktop/Andrey/T_Tongue/T_Tongue_Color.png"},{"uri":"C:/Users/nodev/Desktop/Andrey/T_Eye/T_Eye_Green_Color.png"},{"uri":"C:/Users/nodev/Desktop/Andrey/T_Teeth/T_Teeth_Color.png"}],"materials":[{"emissiveFactor":[0.0,0.0,0.0],"name":"blinn5","pbrMetallicRoughness":{"baseColorFactor":[1,1,1,1],"baseColorTexture":{"index":0,"texCoord":0},"metallicFactor":0,"roughnessFactor":1}},{"emissiveFactor":[0.0,0.0,0.0],"name":"blinn4","pbrMetallicRoughness":{"baseColorFactor":[1,1,1,1],"baseColorTexture":{"index":1,"texCoord":0},"metallicFactor":0,"roughnessFactor":1}},{"emissiveFactor":[0.0,0.0,0.0],"name":"blinn6","pbrMetallicRoughness":{"baseColorFactor":[1,1,1,1],"baseColorTexture":{"index":2,"texCoord":0},"metallicFactor":0,"roughnessFactor":1}},{"emissiveFactor":[0.0,0.0,0.0],"name":"blinn6","pbrMetallicRoughness":{"baseColorFactor":[1,1,1,1],"baseColorTexture":{"index":2,"texCoord":0},"metallicFactor":0,"roughnessFactor":1}},{"emissiveFactor":[0.0,0.0,0.0],"name":"blinn7","pbrMetallicRoughness":{"baseColorFactor":[1,1,1,1],"baseColorTexture":{"index":3,"texCoord":0},"metallicFactor":0,"roughnessFactor":1}},{"emissiveFactor":[0.0,0.0,0.0],"name":"blinn7","pbrMetallicRoughness":{"baseColorFactor":[1,1,1,1],"baseColorTexture":{"index":3,"texCoord":0},"metallicFactor":0,"roughnessFactor":1}}],"meshes":[{"name":"M_Face_Nikita","primitives":[{"attributes":{"JOINTS_0":3,"NORMAL":1,"POSITION":0,"TEXCOORD_0":2,"WEIGHTS_0":4},"indices":5,"material":0}]},{"name":"M_Tongue","primitives":[{"attributes":{"JOINTS_0":10,"NORMAL":8,"POSITION":7,"TEXCOORD_0":9,"WEIGHTS_0":11},"indices":12,"material":1}]},{"name":"M_Eye_Left","primitives":[{"attributes":{"NORMAL":15,"POSITION":14,"TEXCOORD_0":16},"indices":17,"material":2}]},{"name":"M_Eye_Right","primitives":[{"attributes":{"NORMAL":19,"POSITION":18,"TEXCOORD_0":20},"indices":21,"material":3}]},{"name":"M_Teeth_Upper","primitives":[{"attributes":{"NORMAL":23,"POSITION":22,"TEXCOORD_0":24},"indices":25,"material":4}]},{"name":"M_Teeth_Lower","primitives":[{"attributes":{"NORMAL":27,"POSITION":26,"TEXCOORD_0":28},"indices":29,"material":5}]}],"nodes":[{"matrix":[1.0,0.0,0.0,0.0,0.0,1.0,0.0,0.0,0.0,0.0,1.0,0.0,0.0,0.0,0.0,1.0],"mesh":0,"name":"M_Face_Nikita","skin":0},{"matrix":[1.0,0.0,0.0,0.0,0.0,1.0,0.0,0.0,0.0,0.0,1.0,0.0,0.0,0.0,0.0,1.0],"mesh":1,"name":"M_Tongue","skin":1},{"matrix":[1.0,5.551115123125784e-17,-5.551115123125783e-17,0.0,-5.551115123125782e-17,1.0,2.775557561562892e-16,0.0,5.551115123125783e-17,-2.775557561562892e-16,1.0,0.0,-0.005028545390814543,0.0012302877148613334,0.005766524467617273,1.0],"mesh":2,"name":"M_Eye_Left"},{"matrix":[1.0,5.551115123125784e-17,-5.551115123125783e-17,0.0,-5.551115123125782e-17,1.0,2.775557561562892e-16,0.0,5.551115123125783e-17,-2.775557561562892e-16,1.0,0.0,9.032046364154667e-05,-0.0014099035179242492,0.0064841387793421745,1.0],"mesh":3,"name":"M_Eye_Right"},{"matrix":[1.0,1.6653345369377346e-16,-5.5511151231257796e-17,0.0,-1.6653345369377346e-16,1.0000000000000002,2.775557561562891e-16,0.0,5.551115123125786e-17,-2.775557561562891e-16,1.0000000000000002,0.0,7.45931094670027e-17,-1.1102230246251565e-15,3.191891195797325e-16,1.0],"mesh":4,"name":"M_Teeth_Upper"},{"matrix":[0.9999999999999998,-1.6653345369377343e-16,-5.551115123125783e-17,0.0,1.6653345369377343e-16,0.9999999999999998,1.6653345369377343e-16,0.0,5.55111512312578e-17,-1.6653345369377343e-16,0.9999999999999998,0.0,-1.218643241873707e-16,4.440892098500626e-16,-2.636779683484747e-16,1.0],"mesh":5,"name":"M_Teeth_Lower"},{"children":[7],"matrix":[6.122708124998154e-17,0.9999141187909892,0.013105534801732828,0.0,-6.042985739506481e-17,0.013105534801732828,-0.9999141187909892,0.0,-1.0,6.042985739506484e-17,6.122708124998157e-17,0.0,3.9481563859938335e-33,1.2892019748687744,0.0037121963687241077,1.0],"name":"Nikita_Root_Jnt"},{"children":[8],"matrix":[0.9533252329384883,-0.3019453596973764,2.7872606281584e-16,0.0,0.3019453596973764,0.9533252329384883,4.308552404627258e-17,0.0,-2.7872606281583995e-16,4.308552404627263e-17,1.0,0.0,0.1301828771829605,-0.010749490000307562,3.045690595948825e-17,1.0],"name":"C_Neck_01_Jnt"},{"children":[9,10,11,12,14,18],"matrix":[0.966974224752766,0.2548741820267155,2.484449628259534e-32,0.0,-0.2548741820267155,0.966974224752766,-1.5407439555097887e-32,0.0,-1.771855548836257e-32,-1.5407439555097887e-33,1.0,0.0,0.08035711944103241,-0.0012911296216771007,2.2584366680747555e-17,1.0],"name":"C_Head_01_Jnt"},{"matrix":[6.123233995736767e-17,-1.232595164407831e-32,-1.0,0.0,0.9980711157575216,0.06208097849209389,6.111422986169381e-17,0.0,0.06208097849209389,-0.9980711157575216,3.801363579913917e-18,0.0,0.15651626884937309,0.008312385529279709,3.466154773115658e-17,1.0],"name":"C_Head_02_Jnt"},{"matrix":[6.123233995736767e-17,-1.232595164407831e-32,-1.0,0.0,0.9980711157575216,0.06208097849209389,6.111422986169381e-17,0.0,0.06208097849209389,-0.9980711157575216,3.801363579913917e-18,0.0,0.0647907480597496,-0.07426777482032776,0.03256499394774437,1.0],"name":"R_Eye_01_Jnt"},{"matrix":[6.123233995736767e-17,-1.232595164407831e-32,-1.0,0.0,0.9980711157575216,0.06208097849209389,6.111422986169381e-17,0.0,0.06208097849209389,-0.9980711157575216,3.801363579913917e-18,0.0,0.06738129258155845,-0.07338763773441313,-0.025709303095936775,1.0],"name":"L_Eye_01_Jnt"},{"children":[13],"matrix":[-0.50555765413255,-0.8627928246966315,-1.6948183510607676e-32,0.0,0.8627928246966315,-0.50555765413255,1.232595164407831e-32,0.0,4.044452883213195e-33,3.0814879110195774e-33,1.0,0.0,0.026236705482006295,-0.022842422127723694,1.1757959644315624e-17,1.0],"name":"C_Jaw_01_Jnt"},{"matrix":[2.83276944882399e-16,2.465190328815662e-32,-1.0,0.0,-0.5581455028790697,0.8297430913336189,-1.5810975285543308e-16,0.0,0.8297430913336189,0.5581455028790697,2.350470879502649e-16,0.0,0.08510132133960724,0.0,9.448144637725613e-18,1.0],"name":"C_Jaw_02_Jnt"},{"children":[15],"matrix":[0.43104307947452325,-0.9023313491379538,-1.2485303279865124e-16,0.0,0.9023313491379538,0.43104307947452325,1.190273338393241e-16,0.0,-5.358505898826665e-17,-1.639647140489166e-16,1.0,0.0,0.005349854473024607,-0.05033714696764946,1.269708839942979e-17,1.0],"name":"C_Tongue_01_Jnt"},{"children":[16],"matrix":[0.9835261422822003,-0.18076594659252945,4.668769247892621e-16,0.0,0.18076594659252945,0.9835261422822003,4.254819104861234e-17,0.0,-4.668769247892621e-16,4.254819104861229e-17,1.0,0.0,0.013950543478131294,-0.00047354408889077604,6.266363805857727e-18,1.0],"name":"C_Tongue_02_Jnt"},{"children":[17],"matrix":[0.991502823213598,-0.13008517040564127,4.737736957806626e-16,0.0,0.13008517040564127,0.991502823213598,3.09469468137068e-17,0.0,-4.737736957806624e-16,3.0946946813706713e-17,1.0,0.0,0.01412187423557043,-0.0011696565197780728,6.6908600749204465e-18,1.0],"name":"C_Tongue_03_Jnt"},{"matrix":[0.9938723057989491,-0.11053433749690598,4.733100928317708e-16,0.0,0.11053433749690598,0.9938723057989491,2.623890075086591e-17,0.0,-4.733100928317706e-16,2.6238900750865947e-17,1.0,0.0,0.015061326324939728,-0.003199514001607895,7.206275073831418e-18,1.0],"name":"C_Tongue_04_Jnt"},{"matrix":[2.832769448823988e-16,-5.7777898331617076e-33,-1.0,0.0,0.9980711157575216,0.06208097849209433,2.827305364471578e-16,0.0,0.06208097849209433,-0.9980711157575216,1.7586109922550404e-17,0.0,0.02021077647805236,-0.044235795736312866,0.0020727389492094517,1.0],"name":"C_Uvula_01_Jnt"},{"children":[20,21,22,23,24,25,26,27,28,29,30,31,32,33,34,35,36,37,38,39,40,41,42,43,44,45,46,47],"matrix":[1.0,1.6653345369377346e-16,-5.5511151231257796e-17,0.0,-1.6653345369377343e-16,1.0,2.7755575615628904e-16,0.0,5.551115123125784e-17,-2.7755575615628904e-16,1.0,0.0,7.029644297013411e-33,4.440892098500626e-16,0.0,1.0],"name":"Upper_Jaw_Grp_Jnt"},{"matrix":[1.0,9.244463733058749e-33,6.162975822039155e-33,0.0,9.244463733058746e-33,1.0,0.0,0.0,0.0,0.0,1.0,0.0,-0.001295757945626974,1.5650569200515747,0.14528559148311615,1.0],"name":"C_Eyebrow_01_Jnt"},{"matrix":[1.0,9.244463733058749e-33,6.162975822039155e-33,0.0,9.244463733058746e-33,1.0,0.0,0.0,0.0,0.0,1.0,0.0,-0.048636842519044876,1.5729577541351318,0.12503670156002045,1.0],"name":"R_Eyebrow_Out_01_Jnt"},{"matrix":[1.0,9.244463733058749e-33,6.162975822039155e-33,0.0,9.244463733058746e-33,1.0,0.0,0.0,0.0,0.0,1.0,0.0,-0.03489798679947853,1.575806736946106,0.1369863748550415,1.0],"name":"R_Eyebrow_C_01_Jnt"},{"matrix":[1.0,9.244463733058749e-33,6.162975822039155e-33,0.0,9.244463733058746e-33,1.0,0.0,0.0,0.0,0.0,1.0,0.0,-0.017212877050042152,1.5706226825714111,0.14479076862335205,1.0],"name":"R_Eyebrow_In_01_Jnt"},{"matrix":[1.0,9.244463733058749e-33,6.162975822039155e-33,0.0,9.244463733058746e-33,1.0,0.0,0.0,0.0,0.0,1.0,0.0,0.013745328411459923,1.571372628211975,0.14448310434818268,1.0],"name":"L_Eyebrow_In_01_Jnt"},{"matrix":[1.0,9.244463733058749e-33,6.162975822039155e-33,0.0,9.244463733058746e-33,1.0,0.0,0.0,0.0,0.0,1.0,0.0,0.029905891045928,1.5764344930648804,0.13834889233112335,1.0],"name":"L_Eyebrow_C_01_Jnt"},{"matrix":[1.0,9.244463733058749e-33,6.162975822039155e-33,0.0,9.244463733058746e-33,1.0,0.0,0.0,0.0,0.0,1.0,0.0,0.0437353178858757,1.573650598526001,0.12626080214977264,1.0],"name":"L_Eyebrow_Out_01_Jnt"},{"matrix":[1.0,9.244463733058749e-33,6.162975822039155e-33,0.0,9.244463733058746e-33,1.0,0.0,0.0,0.0,0.0,1.0,0.0,0.02740550972521305,1.5612412691116333,0.13137224316596985,1.0],"name":"L_Eyelid_Upper_01_Jnt"},{"matrix":[1.0,9.244463733058749e-33,6.162975822039155e-33,0.0,9.244463733058746e-33,1.0,0.0,0.0,0.0,0.0,1.0,0.0,0.02736309915781021,1.5547648668289185,0.13154153525829315,1.0],"name":"L_Eyelid_Lower_01_Jnt"},{"matrix":[1.0,9.244463733058749e-33,6.162975822039155e-33,0.0,9.244463733058746e-33,1.0,0.0,0.0,0.0,0.0,1.0,0.0,0.015767555683851242,1.5566909313201904,0.12649653851985931,1.0],"name":"L_EyeCorner_In_01_Jnt"},{"matrix":[1.0,9.244463733058749e-33,6.162975822039155e-33,0.0,9.244463733058746e-33,1.0,0.0,0.0,0.0,0.0,1.0,0.0,0.038032978773117065,1.5584137439727783,0.12162501364946365,1.0],"name":"L_EyeCorner_Out_01_Jnt"},{"matrix":[1.0,9.244463733058749e-33,6.162975822039155e-33,0.0,9.244463733058746e-33,1.0,0.0,0.0,0.0,0.0,1.0,0.0,-0.021879443898797035,1.5550997257232666,0.1282591074705124,1.0],"name":"R_EyeCorner_In_01_Jnt"},{"matrix":[1.0,9.244463733058749e-33,6.162975822039155e-33,0.0,9.244463733058746e-33,1.0,0.0,0.0,0.0,0.0,1.0,0.0,-0.044537611305713654,1.5539747476577759,0.12120028585195541,1.0],"name":"R_EyeCorner_Out_01_Jnt"},{"matrix":[1.0,9.244463733058749e-33,6.162975822039155e-33,0.0,9.244463733058746e-33,1.0,0.0,0.0,0.0,0.0,1.0,0.0,-0.03417941555380821,1.558611512184143,0.13126257061958313,1.0],"name":"R_Eyelid_Upper_01_Jnt"},{"matrix":[1.0,9.244463733058749e-33,6.162975822039155e-33,0.0,9.244463733058746e-33,1.0,0.0,0.0,0.0,0.0,1.0,0.0,-0.034245565533638,1.5511020421981812,0.1321447342634201,1.0],"name":"R_Eyelid_Lower_01_Jnt"},{"matrix":[1.0,9.244463733058749e-33,6.162975822039155e-33,0.0,9.244463733058746e-33,1.0,0.0,0.0,0.0,0.0,1.0,0.0,-0.0035774498246610165,1.532975673675537,0.16007055342197418,1.0],"name":"C_Nose_01_Jnt"},{"matrix":[1.0,9.244463733058749e-33,6.162975822039155e-33,0.0,9.244463733058746e-33,1.0,0.0,0.0,0.0,0.0,1.0,0.0,0.012797445058822632,1.5299468040466309,0.14263062179088593,1.0],"name":"L_Nostril_01_Jnt"},{"matrix":[1.0,9.244463733058749e-33,6.162975822039155e-33,0.0,9.244463733058746e-33,1.0,0.0,0.0,0.0,0.0,1.0,0.0,-0.017442749813199043,1.5292140245437622,0.14306211471557617,1.0],"name":"R_Nostril_01_Jnt"},{"matrix":[1.0,9.244463733058749e-33,6.162975822039155e-33,0.0,9.244463733058746e-33,1.0,0.0,0.0,0.0,0.0,1.0,0.0,0.04709162563085556,1.5397565364837646,0.11762520670890808,1.0],"name":"L_Cheekbone_Out_01_Jnt"},{"matrix":[1.0,9.244463733058749e-33,6.162975822039155e-33,0.0,9.244463733058746e-33,1.0,0.0,0.0,0.0,0.0,1.0,0.0,0.02630462683737278,1.5376476049423218,0.13307783007621765,1.0],"name":"L_Cheekbone_In_01_Jnt"},{"matrix":[1.0,9.244463733058749e-33,6.162975822039155e-33,0.0,9.244463733058746e-33,1.0,0.0,0.0,0.0,0.0,1.0,0.0,-0.03168358653783798,1.537302017211914,0.1347302943468094,1.0],"name":"R_Cheekbone_In_01_Jnt"},{"matrix":[1.0,9.244463733058749e-33,6.162975822039155e-33,0.0,9.244463733058746e-33,1.0,0.0,0.0,0.0,0.0,1.0,0.0,-0.053526826202869415,1.538817286491394,0.11788107454776764,1.0],"name":"R_Cheekbone_Out_01_Jnt"},{"matrix":[1.0,9.244463733058749e-33,6.162975822039155e-33,0.0,9.244463733058746e-33,1.0,0.0,0.0,0.0,0.0,1.0,0.0,0.04251101613044739,1.5027797222137451,0.11672351509332657,1.0],"name":"L_Cheek_01_Jnt"},{"matrix":[1.0,9.244463733058749e-33,6.162975822039155e-33,0.0,9.244463733058746e-33,1.0,0.0,0.0,0.0,0.0,1.0,0.0,-0.04554793983697891,1.5020191669464111,0.11744312942028046,1.0],"name":"R_Cheek_01_Jnt"},{"matrix":[1.0,9.244463733058749e-33,6.162975822039155e-33,0.0,9.244463733058746e-33,1.0,0.0,0.0,0.0,0.0,1.0,0.0,0.009703388437628746,1.508204460144043,0.1475445032119751,1.0],"name":"L_UpperLip_01_Jnt"},{"matrix":[1.0,9.244463733058749e-33,6.162975822039155e-33,0.0,9.244463733058746e-33,1.0,0.0,0.0,0.0,0.0,1.0,0.0,-0.012076213955879211,1.5077829360961914,0.1482480764389038,1.0],"name":"R_UpperLip_01_Jnt"},{"matrix":[1.0,9.244463733058749e-33,6.162975822039155e-33,0.0,9.244463733058746e-33,1.0,0.0,0.0,0.0,0.0,1.0,0.0,0.02243092469871044,1.5017160177230835,0.13237781822681427,1.0],"name":"L_MouthCorner_01_Jnt"},{"matrix":[1.0,9.244463733058749e-33,6.162975822039155e-33,0.0,9.244463733058746e-33,1.0,0.0,0.0,0.0,0.0,1.0,0.0,-0.02440408617258072,1.500422716140747,0.13492125272750854,1.0],"name":"R_MouthCorner_01_Jnt"},{"children":[49,50],"matrix":[1.0,6.162975822039155e-33,-5.551115123125783e-17,0.0,6.162975822039155e-33,1.0,2.220446049250313e-16,0.0,5.551115123125783e-17,-2.220446049250313e-16,1.0,0.0,5.488900341503622e-33,1.1102230246251565e-16,6.938893903907228e-18,1.0],"name":"Lower_Jaw_Grp_Jnt"},{"matrix":[1.0,-3.885780586188048e-16,-2.3592239273284576e-16,0.0,3.885780586188048e-16,1.0,5.55111512312578e-17,0.0,2.3592239273284576e-16,-5.551115123125788e-17,1.0,0.0,0.00847585778683424,1.4980980157852173,0.14626121520996094,1.0],"name":"L_LowerLip_01_Jnt"},{"matrix":[1.0,-1.9428902930940242e-16,-1.1796119636642288e-16,0.0,1.9428902930940237e-16,1.0,2.7755575615628914e-17,0.0,1.1796119636642288e-16,-2.7755575615628914e-17,1.0,0.0,-0.009613480418920517,1.4972498416900635,0.14668430387973785,1.0],"name":"R_LowerLip_01_Jnt"}],"samplers":[{"magFilter":9729,"minFilter":9987,"wrapS":10497,"wrapT":10497}],"scene":0,"scenes":[{"nodes":[0,1,2,3,4,5,6,19,48]}],"skins":[{"inverseBindMatrices":6,"joints":[6,7,8,9,12,13,14,15,16,17,18,31,32,30,28,29,27,44,43,47,42,45,41,46,40,39,38,34,35,37,36,33,23,49,25,50,21,24,22,26,20]},{"inverseBindMatrices":13,"joints":[8,12,14,15,16,17,18]}],"textures":[{"format":6408,"internalFormat":6408,"sampler":0,"source":0,"target":3553},{"format":6408,"internalFormat":6408,"sampler":0,"source":1,"target":3553},{"format":6408,"internalFormat":6408,"sampler":0,"source":2,"target":3553},{"format":6408,"internalFormat":6408,"sampler":0,"source":3,"target":3553}]}