{
  "accessors": [
    {
      "bufferView": 0,
      "byteOffset": 0,
      "componentType": 5126,
      "count": 2682,
      "max": [
        2.750898599624634,
        2.6453402042388916,
        2.7938356399536133
      ],
      "min": [
        -2.7537360191345215,
        -2.5518434047698975,
        -2.823648452758789
      ],
      "type": "VEC3"
    },
    {
      "bufferView": 0,
      "byteOffset": 32184,
      "componentType": 5126,
      "count": 2682,
      "max": [
        0.9984930157661438,
        0.9997265338897705,
        0.9984604716300964
      ],
      "min": [
        -0.9984930157661438,
        -0.9999814629554749,
        -0.9984607696533203
      ],
      "type": "VEC3"
    },
    {
      "bufferView": 0,
      "byteOffset": 64368,
      "componentType": 5126,
      "count": 2682,
      "max": [
        0.9663040637969971,
        -0.022464990615844727
      ],
      "min": [
        0.03754362463951111,
        -0.9772672653198242
      ],
      "type": "VEC2"
    },
    {
      "bufferView": 1,
      "byteOffset": 0,
      "componentType": 5123,
      "count": 15840,
      "max": [
        2681
      ],
      "min": [
        0
      ],
      "type": "SCALAR"
    },
    {
      "bufferView": 0,
      "byteOffset": 85824,
      "componentType": 5126,
      "count": 2682,
      "max": [
        2.751652717590332,
        2.7608180046081543,
        2.8095309734344482
      ],
      "min": [
        -2.7529826164245605,
        -2.4363656044006348,
        -2.807952880859375
      ],
      "type": "VEC3"
    },
    {
      "bufferView": 0,
      "byteOffset": 118008,
      "componentType": 5126,
      "count": 2682,
      "max": [
        0.9984930157661438,
        0.9997265338897705,
        0.9984605312347412
      ],
      "min": [
        -0.9984931349754333,
        -0.9999901652336121,
        -0.9984607100486755
      ],
      "type": "VEC3"
    },
    {
      "bufferView": 0,
      "byteOffset": 150192,
      "componentType": 5126,
      "count": 2682,
      "max": [
        0.9663040637969971,
        -0.022464990615844727
      ],
      "min": [
        0.03754362463951111,
        -0.9772672653198242
      ],
      "type": "VEC2"
    },
    {
      "bufferView": 1,
      "byteOffset": 31680,
      "componentType": 5123,
      "count": 15840,
      "max": [
        2681
      ],
      "min": [
        0
      ],
      "type": "SCALAR"
    },
    {
      "bufferView": 0,
      "byteOffset": 171648,
      "componentType": 5126,
      "count": 2488,
      "max": [
        3.633890151977539,
        1.6601269245147705,
        4.036421298980713
      ],
      "min": [
        -3.6738946437835693,
        -0.6005982160568237,
        -3.164274215698242
      ],
      "type": "VEC3"
    },
    {
      "bufferView": 0,
      "byteOffset": 201504,
      "componentType": 5126,
      "count": 2488,
      "max": [
        0.9998883605003357,
        0.5529578328132629,
        0.9998418092727661
      ],
      "min": [
        -0.9999891519546509,
        -0.9997856616973877,
        -0.9996742010116577
      ],
      "type": "VEC3"
    },
    {
      "bufferView": 0,
      "byteOffset": 231360,
      "componentType": 5126,
      "count": 2488,
      "max": [
        4.967949867248535,
        0.6656799912452698
      ],
      "min": [
        4.032430171966553,
        0.1850699782371521
      ],
      "type": "VEC2"
    },
    {
      "bufferView": 1,
      "byteOffset": 63360,
      "componentType": 5123,
      "count": 12768,
      "max": [
        2487
      ],
      "min": [
        0
      ],
      "type": "SCALAR"
    },
    {
      "bufferView": 0,
      "byteOffset": 251264,
      "componentType": 5126,
      "count": 2548,
      "max": [
        3.5290894508361816,
        0.857935905456543,
        3.7187600135803223
      ],
      "min": [
        -3.6260175704956055,
        -1.620875597000122,
        -3.455885410308838
      ],
      "type": "VEC3"
    },
    {
      "bufferView": 0,
      "byteOffset": 281840,
      "componentType": 5126,
      "count": 2548,
      "max": [
        0.9997597336769104,
        0.9998945593833923,
        0.9998053908348083
      ],
      "min": [
        -0.9998523592948914,
        -0.6485402584075928,
        -0.9997503757476807
      ],
      "type": "VEC3"
    },
    {
      "bufferView": 0,
      "byteOffset": 312416,
      "componentType": 5126,
      "count": 2548,
      "max": [
        4.951539993286133,
        0.9899800000712276
      ],
      "min": [
        4.048570156097412,
        0.6752299964427948
      ],
      "type": "VEC2"
    },
    {
      "bufferView": 1,
      "byteOffset": 88896,
      "componentType": 5123,
      "count": 13152,
      "max": [
        2547
      ],
      "min": [
        0
      ],
      "type": "SCALAR"
    },
    {
      "bufferView": 0,
      "byteOffset": 332800,
      "componentType": 5126,
      "count": 395,
      "max": [
        2.552154779434204,
        0.6704501509666443,
        3.4502787590026855
      ],
      "min": [
        -2.52693247795105,
        -2.090508222579956,
        -2.237039804458618
      ],
      "type": "VEC3"
    },
    {
      "bufferView": 0,
      "byteOffset": 337540,
      "componentType": 5126,
      "count": 395,
      "max": [
        0.9983842968940735,
        0.9999242424964905,
        0.9776803851127625
      ],
      "min": [
        -0.997765839099884,
        -0.9991093277931213,
        -0.24618957936763763
      ],
      "type": "VEC3"
    },
    {
      "bufferView": 0,
      "byteOffset": 342280,
      "componentType": 5126,
      "count": 395,
      "max": [
        4.609809875488281,
        0.15236997604370117
      ],
      "min": [
        4.390140056610107,
        0.0227699875831604
      ],
      "type": "VEC2"
    },
    {
      "bufferView": 1,
      "byteOffset": 115200,
      "componentType": 5123,
      "count": 2208,
      "max": [
        394
      ],
      "min": [
        0
      ],
      "type": "SCALAR"
    },
    {
      "bufferView": 0,
      "byteOffset": 345440,
      "componentType": 5126,
      "count": 2080,
      "max": [
        2.769526720046997,
        2.782639741897583,
        2.5678608417510986
      ],
      "min": [
        -2.7935516834259033,
        -2.89350962638855,
        -3.330334424972534
      ],
      "type": "VEC3"
    },
    {
      "bufferView": 0,
      "byteOffset": 370400,
      "componentType": 5126,
      "count": 2080,
      "max": [
        0.998311460018158,
        0.9982471466064453,
        0.9998669624328613
      ],
      "min": [
        -0.9983115792274475,
        -0.9982471466064453,
        -0.9996400475502014
      ],
      "type": "VEC3"
    },
    {
      "bufferView": 0,
      "byteOffset": 395360,
      "componentType": 5126,
      "count": 2080,
      "max": [
        0.9750000238418579,
        1.0
      ],
      "min": [
        0.02500000037252903,
        0.0
      ],
      "type": "VEC2"
    },
    {
      "bufferView": 1,
      "byteOffset": 119616,
      "componentType": 5123,
      "count": 12000,
      "max": [
        2079
      ],
      "min": [
        0
      ],
      "type": "SCALAR"
    },
    {
      "bufferView": 0,
      "byteOffset": 412000,
      "componentType": 5126,
      "count": 2080,
      "max": [
        2.793551445007324,
        2.8935089111328125,
        3.3303327560424805
      ],
      "min": [
        -2.769526481628418,
        -2.782639265060425,
        -2.567859649658203
      ],
      "type": "VEC3"
    },
    {
      "bufferView": 0,
      "byteOffset": 436960,
      "componentType": 5126,
      "count": 2080,
      "max": [
        0.998311460018158,
        0.9982470273971558,
        0.9998070597648621
      ],
      "min": [
        -0.998311460018158,
        -0.9982471466064453,
        -0.9999049305915833
      ],
      "type": "VEC3"
    },
    {
      "bufferView": 0,
      "byteOffset": 461920,
      "componentType": 5126,
      "count": 2080,
      "max": [
        0.9750000238418579,
        1.0
      ],
      "min": [
        0.02500000037252903,
        0.0
      ],
      "type": "VEC2"
    },
    {
      "bufferView": 1,
      "byteOffset": 143616,
      "componentType": 5123,
      "count": 12000,
      "max": [
        2079
      ],
      "min": [
        0
      ],
      "type": "SCALAR"
    },
    {
      "bufferView": 0,
      "byteOffset": 478560,
      "componentType": 5126,
      "count": 1257,
      "max": [
        55.667945861816406,
        23.026721954345703,
        26.583295822143555
      ],
      "min": [
        -55.667945861816406,
        -22.949209213256836,
        -26.623506546020508
      ],
      "type": "VEC3"
    },
    {
      "bufferView": 0,
      "byteOffset": 493644,
      "componentType": 5126,
      "count": 1257,
      "max": [
        0.9943845868110657,
        0.999664306640625,
        0.9975890517234802
      ],
      "min": [
        -0.9957579374313354,
        -0.5359050035476685,
        -0.9963377714157104
      ],
      "type": "VEC3"
    },
    {
      "bufferView": 0,
      "byteOffset": 508728,
      "componentType": 5126,
      "count": 1257,
      "max": [
        0.9900000095367432,
        0.9900000002235174
      ],
      "min": [
        0.009999999776482582,
        0.49024999141693115
      ],
      "type": "VEC2"
    },
    {
      "bufferView": 1,
      "byteOffset": 167616,
      "componentType": 5123,
      "count": 6912,
      "max": [
        1256
      ],
      "min": [
        0
      ],
      "type": "SCALAR"
    },
    {
      "bufferView": 0,
      "byteOffset": 518784,
      "componentType": 5126,
      "count": 8164,
      "max": [
        22.151517868041992,
        24.993568420410156,
        28.872703552246094
      ],
      "min": [
        -21.817657470703125,
        -25.648752212524414,
        -28.535680770874023
      ],
      "type": "VEC3"
    },
    {
      "bufferView": 0,
      "byteOffset": 616752,
      "componentType": 5126,
      "count": 8164,
      "max": [
        0.999847412109375,
        0.999969482421875,
        0.999786376953125
      ],
      "min": [
        -0.999786376953125,
        -0.999725341796875,
        -0.99981689453125
      ],
      "type": "VEC3"
    },
    {
      "bufferView": 0,
      "byteOffset": 714720,
      "componentType": 5126,
      "count": 8164,
      "max": [
        0.9986799955368042,
        0.8739199936389923
      ],
      "min": [
        0.0013000000035390258,
        0.03548997640609741
      ],
      "type": "VEC2"
    },
    {
      "bufferView": 1,
      "byteOffset": 181440,
      "componentType": 5123,
      "count": 47733,
      "max": [
        8163
      ],
      "min": [
        0
      ],
      "type": "SCALAR"
    }
  ],
  "asset": {
    "generator": "ClayGL - fbx2gltf",
    "version": "2.0"
  },
  "bufferViews": [
    {
      "buffer": 0,
      "byteLength": 780032,
      "byteOffset": 0,
      "target": 34962
    },
    {
      "buffer": 0,
      "byteLength": 276906,
      "byteOffset": 780032,
      "target": 34963
    }
  ],
  "buffers": [
    {
      "byteLength": 1056938,
      "uri": "Slava_Scene.bin"
    }
  ],
  "materials": [
    {
      "emissiveFactor": [
        0.0,
        0.0,
        0.0
      ],
      "name": "Material.002",
      "pbrMetallicRoughness": {
        "baseColorFactor": [
          0.8,
          0.8,
          0.8,
          1
        ],
        "metallicFactor": 0,
        "roughnessFactor": 1
      }
    },
    {
      "emissiveFactor": [
        0.0,
        0.0,
        0.0
      ],
      "name": "Material.002",
      "pbrMetallicRoughness": {
        "baseColorFactor": [
          0.8,
          0.8,
          0.8,
          1
        ],
        "metallicFactor": 0,
        "roughnessFactor": 1
      }
    },
    {
      "emissiveFactor": [
        0.0,
        0.0,
        0.0
      ],
      "name": "defaultMat.006",
      "pbrMetallicRoughness": {
        "baseColorFactor": [
          0.8,
          0.8,
          0.8,
          1
        ],
        "metallicFactor": 0,
        "roughnessFactor": 1
      }
    },
    {
      "emissiveFactor": [
        0.0,
        0.0,
        0.0
      ],
      "name": "defaultMat.006",
      "pbrMetallicRoughness": {
        "baseColorFactor": [
          0.8,
          0.8,
          0.8,
          1
        ],
        "metallicFactor": 0,
        "roughnessFactor": 1
      }
    },
    {
      "emissiveFactor": [
        0.0,
        0.0,
        0.0
      ],
      "name": "defaultMat.006",
      "pbrMetallicRoughness": {
        "baseColorFactor": [
          0.8,
          0.8,
          0.8,
          1
        ],
        "metallicFactor": 0,
        "roughnessFactor": 1
      }
    },
    {
      "emissiveFactor": [
        0.0,
        0.0,
        0.0
      ],
      "name": "Material.003",
      "pbrMetallicRoughness": {
        "baseColorFactor": [
          0.8,
          0.8,
          0.8,
          1
        ],
        "metallicFactor": 0,
        "roughnessFactor": 1
      }
    },
    {
      "emissiveFactor": [
        0.0,
        0.0,
        0.0
      ],
      "name": "Material.003",
      "pbrMetallicRoughness": {
        "baseColorFactor": [
          0.8,
          0.8,
          0.8,
          1
        ],
        "metallicFactor": 0,
        "roughnessFactor": 1
      }
    },
    {
      "emissiveFactor": [
        0.0,
        0.0,
        0.0
      ],
      "name": "Material.001",
      "pbrMetallicRoughness": {
        "baseColorFactor": [
          0.8,
          0.8,
          0.8,
          1
        ],
        "metallicFactor": 0,
        "roughnessFactor": 1
      }
    },
    {
      "emissiveFactor": [
        0.0,
        0.0,
        0.0
      ],
      "name": "Material",
      "pbrMetallicRoughness": {
        "baseColorFactor": [
          0.8,
          0.8,
          0.8,
          1
        ],
        "metallicFactor": 0,
        "roughnessFactor": 1
      }
    }
  ],
  "meshes": [
    {
      "name": "Untitled.002",
      "primitives": [
        {
          "attributes": {
            "NORMAL": 1,
            "POSITION": 0,
            "TEXCOORD_0": 2
          },
          "indices": 3,
          "material": 0
        }
      ]
    },
    {
      "name": "Untitled.001",
      "primitives": [
        {
          "attributes": {
            "NORMAL": 5,
            "POSITION": 4,
            "TEXCOORD_0": 6
          },
          "indices": 7,
          "material": 1
        }
      ]
    },
    {
      "name": "Untitled",
      "primitives": [
        {
          "attributes": {
            "NORMAL": 9,
            "POSITION": 8,
            "TEXCOORD_0": 10
          },
          "indices": 11,
          "material": 2
        }
      ]
    },
    {
      "name": "Untitled.011",
      "primitives": [
        {
          "attributes": {
            "NORMAL": 13,
            "POSITION": 12,
            "TEXCOORD_0": 14
          },
          "indices": 15,
          "material": 3
        }
      ]
    },
    {
      "name": "Untitled.010",
      "primitives": [
        {
          "attributes": {
            "NORMAL": 17,
            "POSITION": 16,
            "TEXCOORD_0": 18
          },
          "indices": 19,
          "material": 4
        }
      ]
    },
    {
      "name": "Untitled.003",
      "primitives": [
        {
          "attributes": {
            "NORMAL": 21,
            "POSITION": 20,
            "TEXCOORD_0": 22
          },
          "indices": 23,
          "material": 5
        }
      ]
    },
    {
      "name": "Untitled.000",
      "primitives": [
        {
          "attributes": {
            "NORMAL": 25,
            "POSITION": 24,
            "TEXCOORD_0": 26
          },
          "indices": 27,
          "material": 6
        }
      ]
    },
    {
      "name": "Sweater_Low",
      "primitives": [
        {
          "attributes": {
            "NORMAL": 29,
            "POSITION": 28,
            "TEXCOORD_0": 30
          },
          "indices": 31,
          "material": 7
        }
      ]
    },
    {
      "name": "slava",
      "primitives": [
        {
          "attributes": {
            "NORMAL": 33,
            "POSITION": 32,
            "TEXCOORD_0": 34
          },
          "indices": 35,
          "material": 8
        }
      ]
    }
  ],
  "nodes": [
    {
      "matrix": [
        10.0,
        0.0,
        0.0,
        0.0,
        0.0,
        -1.6292067955264301e-06,
        -9.999999999999869,
        0.0,
        0.0,
        9.999999046325552,
        -1.6292066401531624e-06,
        0.0,
        -71.25376892089844,
        14.795578002929688,
        149.58575439453125,
        1.0
      ],
      "mesh": 0,
      "name": "Eye_Right"
    },
    {
      "matrix": [
        10.0,
        0.0,
        0.0,
        0.0,
        0.0,
        -1.6292067955264301e-06,
        -9.999999999999869,
        0.0,
        0.0,
        9.999999999999869,
        -1.6292067955264301e-06,
        0.0,
        69.46153259277344,
        14.63862419128418,
        150.74029541015625,
        1.0
      ],
      "mesh": 1,
      "name": "Eye_Left"
    },
    {
      "matrix": [
        18.15871810913086,
        0.0,
        0.0,
        0.0,
        0.0,
        14.757929801940724,
        2.4043720316721275e-06,
        0.0,
        0.0,
        -2.5258221917342477e-06,
        15.50338554382304,
        0.0,
        2.7476325035095215,
        -136.9000244140625,
        113.46886444091797,
        1.0
      ],
      "mesh": 2,
      "name": "Teeth_Upper"
    },
    {
      "matrix": [
        18.15871810913086,
        0.0,
        0.0,
        0.0,
        0.0,
        14.757929801940724,
        2.4043720316721275e-06,
        0.0,
        0.0,
        -2.5258221917342477e-06,
        15.50338554382304,
        0.0,
        2.531911849975586,
        -136.90011596679688,
        119.1827392578125,
        1.0
      ],
      "mesh": 3,
      "name": "Teeth_Lower"
    },
    {
      "matrix": [
        18.156245208015484,
        -0.2160135275630108,
        -0.2075384282319076,
        0.0,
        0.1888206454407006,
        14.70692832773452,
        1.2112381952989957,
        0.0,
        0.16144142266125128,
        -1.2745145164729168,
        15.450066093876059,
        0.0,
        2.9807779788970947,
        -140.80308532714844,
        106.77326202392578,
        1.0
      ],
      "mesh": 4,
      "name": "Gums"
    },
    {
      "matrix": [
        9.999605202735983,
        1.7742475321759607e-06,
        0.08885825461002482,
        0.0,
        -0.008260246523063225,
        9.956715260631116,
        0.9293625988137336,
        0.0,
        -0.08847347751642731,
        -0.9293993955759148,
        9.956323123211392,
        0.0,
        -71.19212341308594,
        14.736184120178223,
        156.19479370117188,
        1.0
      ],
      "mesh": 5,
      "name": "Eye_Lens_Right"
    },
    {
      "matrix": [
        9.999605182957243,
        8.350045282222257e-07,
        -0.08886048038309954,
        0.0,
        -0.008257705332638591,
        -9.956717796199536,
        -0.9293457180514967,
        0.0,
        -0.08847594180398805,
        0.9293823156321378,
        -9.956323737813225,
        0.0,
        69.27352905273438,
        14.736185073852539,
        156.1950225830078,
        1.0
      ],
      "mesh": 6,
      "name": "Eye_Lens_Left"
    },
    {
      "matrix": [
        10.0,
        0.0,
        0.0,
        0.0,
        0.0,
        9.999999046325552,
        1.6292066940561857e-06,
        0.0,
        0.0,
        -1.6292068494294586e-06,
        9.999999999999869,
        0.0,
        6.341217994689941,
        -361.83721923828125,
        -134.69496154785156,
        1.0
      ],
      "mesh": 7,
      "name": "Sweater"
    },
    {
      "matrix": [
        10.0,
        0.0,
        0.0,
        0.0,
        0.0,
        -1.6292067955264301e-06,
        -9.999999999999869,
        0.0,
        0.0,
        9.999999046325552,
        -1.6292066401531624e-06,
        0.0,
        4.547473508864641e-12,
        0.0,
        0.0,
        1.0
      ],
      "mesh": 8,
      "name": "Slava"
    }
  ],
  "scene": 0,
  "scenes": [
    {
      "nodes": [
        0,
        1,
        2,
        3,
        4,
        5,
        6,
        7,
        8
      ]
    }
  ]
}